<?xml version="1.0" standalone="no"?>
<!DOCTYPE svg PUBLIC "-//W3C//DTD SVG 20010904//EN"
 "http://www.w3.org/TR/2001/REC-SVG-20010904/DTD/svg10.dtd">
<svg version="1.0" xmlns="http://www.w3.org/2000/svg"
 width="72.000000pt" height="72.000000pt" viewBox="0 0 72.000000 72.000000"
 preserveAspectRatio="xMidYMid meet">
<metadata>
Created by potrace 1.14, written by Peter Selinger 2001-2017
</metadata>
<g transform="translate(0.000000,72.000000) scale(0.100000,-0.100000)"
fill="#000000" stroke="none">
<path d="M225 684 c-59 -28 -76 -57 -76 -131 0 -30 -3 -53 -6 -50 -10 11 -87
-24 -109 -51 -18 -20 -24 -38 -22 -70 1 -23 -2 -45 -5 -48 -11 -11 21 -61 53
-84 17 -12 47 -24 67 -25 19 -2 36 -5 38 -7 2 -2 5 -28 6 -58 2 -30 10 -67 18
-82 16 -28 64 -61 74 -52 3 4 14 3 24 -1 32 -14 55 -15 69 -4 8 6 14 9 14 5 0
-19 70 67 72 89 2 23 6 25 28 19 53 -14 89 -15 127 -5 47 13 72 38 75 74 1 15
5 27 9 27 31 0 9 91 -32 130 l-31 29 21 28 c12 16 24 52 28 80 5 47 3 54 -21
76 -14 13 -26 29 -26 35 0 19 -55 42 -91 38 -46 -4 -61 -9 -77 -23 -17 -16
-36 -8 -52 22 -7 14 -26 30 -42 37 -15 7 -28 15 -28 19 0 13 -59 4 -105 -17z"/>
</g>
</svg>
